<svg id="Layer_1" data-name="Layer 1" xmlns="http://www.w3.org/2000/svg" viewBox="0 0 1280 1024"><defs><style>.cls-1{fill:#fff;}</style></defs><title>sapiano08</title><path class="cls-1" d="M590,518.94q-3.16-4.62-3.17-12.32a56.81,56.81,0,0,1,3-17.22,77.91,77.91,0,0,1,8-17.42q-16.74,16.74-26.66,25.5a95.88,95.88,0,0,1-21,14.24,51.52,51.52,0,0,1-23.19,5.49q-20.4,0-47.34-16.56-19.07-11.34-33.49-11.35-21.94,0-39.65,24.83a6.77,6.77,0,0,1-1.73,1.83,3.1,3.1,0,0,1-1.35.67c-.26,0-.38-.13-.38-.39a7.5,7.5,0,0,1,1.54-2.69q9.81-13.66,19.92-19.92a39.44,39.44,0,0,1,21.07-6.25,50.46,50.46,0,0,1,16.94,3.07,115.87,115.87,0,0,1,18.67,8.86q27.9,15.78,47.15,15.78a48,48,0,0,0,20.88-4.62,82.78,82.78,0,0,0,18.29-11.93q8.55-7.32,22.42-21,7.11-7.5,13.85-13.67v.2q8.09-8.47,15.21-8.47,4.81,0,8,4.62A18.6,18.6,0,0,1,630.1,471a21,21,0,0,1-.19,3.27c-.39,1.8-.84,3.62-1.35,5.48s-.9,2.73-1.15,2.6l-2.5-.38c-.13-.13.06-1,.57-2.6a52.47,52.47,0,0,0,1.35-5.1,28.15,28.15,0,0,0,.58-5.58q0-6.16-4-6.16-6.36,0-12.23,7.12a55.89,55.89,0,0,0-9.43,17.42,58,58,0,0,0-3.56,18.76q0,6.16,2.12,9.82a6.5,6.5,0,0,0,6.35,3.46q7.13-.18,47.35-41.19a50.14,50.14,0,0,1,3.65-3.65q1.35,0-11.06,13.37a283.38,283.38,0,0,1-25.89,24.64q-13.47,11.25-20.78,11.26Q593.14,523.56,590,518.94Z"/><path class="cls-1" d="M652.52,559.45q-3.16-5.1-3.17-12.8a41.3,41.3,0,0,1,4-17.41,40.87,40.87,0,0,1,12.13-15.11l-3.47-14.05A98.36,98.36,0,0,1,659,477.75q0-10.39,3.76-16.36t11.83-6h1.16a13,13,0,0,1,10,5.19,17.85,17.85,0,0,1,4,11.55,18.33,18.33,0,0,1-1.93,8.28A6.67,6.67,0,0,0,687,482c-.19.51-.41.77-.67.77a4.77,4.77,0,0,1-1.54-.58c-.26-.13,0-1.28.68-3.47a18.79,18.79,0,0,0,1-5.58c0-3.46-.9-6.16-2.69-8.08a8.42,8.42,0,0,0-6.35-2.89q-8.67,0-8.66,14a76.85,76.85,0,0,0,2.11,16.84q2.11,9.34,4.43,16.46a101.85,101.85,0,0,1,21-15.21q10.77-5.78,26.37-5.77a77.46,77.46,0,0,1,14.05,1.35,125.37,125.37,0,0,1,17.7,4q8.85,2.7,22.14,7.31,14.63,5.2,23.86,7.8a64.28,64.28,0,0,0,17.32,2.6,43.56,43.56,0,0,0,8.66-1.16A39.43,39.43,0,0,0,841,503.54a15.65,15.65,0,0,0,6.64-13.09,22.37,22.37,0,0,0-2.51-9.62,8.74,8.74,0,0,1-.77-2.12c-.13-.64-.06-1,.2-1,.51,0,1.21,1,2.11,2.89a21.49,21.49,0,0,1,2.51,9.62,17.84,17.84,0,0,1-6.93,14.24A34.58,34.58,0,0,1,826.8,512a44.68,44.68,0,0,1-8.66.77,72.19,72.19,0,0,1-18.38-2.5q-9.53-2.5-24.93-7.7-12.89-4.23-21.65-6.83a130.31,130.31,0,0,0-17.8-3.95,78.74,78.74,0,0,0-12.9-1.15q-15.39,0-25.88,5.77a89.5,89.5,0,0,0-20.11,15.4,85,85,0,0,1,3.65,23.29q0,13.67-5.39,21.55t-13.66,7.89Q655.71,564.55,652.52,559.45Zm14-7.79q2.31-5.77,2.31-15.78a103.21,103.21,0,0,0-1.73-17.71q-5,3.86-8.57,12.8a45.51,45.51,0,0,0-3.56,16.84q0,9.62,5.58,9.62Q664.17,557.43,666.48,551.66Z"/><path class="cls-1" d="M628.86,771.57a13.66,13.66,0,0,1-2.62,6.7,12.7,12.7,0,0,1-5.72,4.2,18.5,18.5,0,0,1-8,1q-7.32-.56-11.18-5.65t-3.19-13.81l.14-1.83a22.51,22.51,0,0,1,2.62-9.42,14.51,14.51,0,0,1,6-5.92,15.31,15.31,0,0,1,8.45-1.61q6.76.51,10.6,4.39a14.11,14.11,0,0,1,3.93,10.17l-8.94-.68q.17-3.4-1.34-5a7,7,0,0,0-4.79-1.86,5.39,5.39,0,0,0-5.09,2.13c-1.16,1.59-1.91,4.22-2.24,7.87l-.2,2.63c-.3,4,0,6.84.85,8.62s2.52,2.76,4.95,2.94a6.93,6.93,0,0,0,4.84-1.09,6.19,6.19,0,0,0,2.08-4.5Z"/><path class="cls-1" d="M710,773.56l-8.72,2-3.41-15.19-12.92,2.9,3.41,15.19-8.77,2L671.39,744l8.77-2,3.24,14.44,12.92-2.9-3.24-14.44,8.72-2Z"/><path class="cls-1" d="M774.89,737.32l-10.67,6.16,1.63,7.11-8.32,4.8-6.81-39.12L758,712l30.58,25.39-8.36,4.83Zm-12.27-.92,6.94-4-9.95-9.19Z"/><path class="cls-1" d="M820,659.22l17.82,16.68a14,14,0,0,1,4,6.19,11.4,11.4,0,0,1-.09,6.86,17.77,17.77,0,0,1-4.17,6.79q-4.67,5-9.91,5.43a12.63,12.63,0,0,1-9.8-3.7l-18-16.8,6.18-6.6L824.2,691q4.57,4.07,8.36,0a5.49,5.49,0,0,0,1.76-4.14c-.09-1.39-1-2.88-2.66-4.45l-17.79-16.64Z"/><path class="cls-1" d="M891.22,613.07l-3.92,8-26.65,1.69L881.5,633l-4,8.08-33.5-16.37,4-8.07,26.63-1.67-20.84-10.18,3.93-8.06Z"/><path class="cls-1" d="M899.21,530.45a13.65,13.65,0,0,1,6.47,3.14,12.64,12.64,0,0,1,3.73,6,18.24,18.24,0,0,1,.4,8.09q-1.14,7.26-6.52,10.69t-14,2.09l-1.82-.29a22.5,22.5,0,0,1-9.18-3.37,14.37,14.37,0,0,1-5.42-6.41,15.24,15.24,0,0,1-.93-8.54q1.05-6.71,5.21-10.23a14.15,14.15,0,0,1,10.46-3.1l-1.39,8.85q-3.37-.42-5.1.94a7.12,7.12,0,0,0-2.23,4.63,5.4,5.4,0,0,0,1.72,5.25c1.5,1.28,4,2.24,7.67,2.85l2.61.41c3.93.62,6.81.56,8.65-.16s3-2.29,3.33-4.7a6.92,6.92,0,0,0-.71-4.91,6.17,6.17,0,0,0-4.31-2.43Z"/><path class="cls-1" d="M889.2,470.08l-17-4.65L871,455.81l25.28,8.72,13.27-1.78,1.22,9-13.28,1.78-22.08,15.06-1.29-9.57Z"/><path class="cls-1" d="M446.56,691.46c-103-103-103-270.71,0-373.75s270.71-103,373.75,0L815,323c-100.12-100.12-263-100.12-363.15,0s-100.12,263,0,363.15Z"/><circle class="cls-1" cx="862.53" cy="380.4" r="17.29"/><circle class="cls-1" cx="507.91" cy="735.01" r="17.29"/></svg>