<svg id="Layer_1" data-name="Layer 1" xmlns="http://www.w3.org/2000/svg" viewBox="0 0 1044.02 1024"><defs><style>.cls-1{fill:#fff;}</style></defs><path class="cls-1" d="M427.93,524.26q-5.71-8.35-5.74-22.3a102.77,102.77,0,0,1,5.43-31.18,140.9,140.9,0,0,1,14.49-31.53q-30.32,30.3-48.27,46.16a173.4,173.4,0,0,1-38,25.78,93.27,93.27,0,0,1-42,9.94q-36.93,0-85.7-30-34.51-20.53-60.63-20.55-39.7,0-71.78,44.95a12.22,12.22,0,0,1-3.13,3.32,5.61,5.61,0,0,1-2.44,1.21c-.47,0-.69-.24-.69-.71a13.63,13.63,0,0,1,2.79-4.87q17.76-24.72,36.06-36.06a71.38,71.38,0,0,1,38.14-11.31,91.19,91.19,0,0,1,30.67,5.56,208.59,208.59,0,0,1,33.8,16q50.51,28.56,85.36,28.56a87,87,0,0,0,37.8-8.36,150.19,150.19,0,0,0,33.11-21.6q15.48-13.24,40.59-38,12.87-13.57,25.07-24.74v.36q14.64-15.33,27.53-15.33,8.72,0,14.49,8.36a33.64,33.64,0,0,1,5.64,19.51,37.79,37.79,0,0,1-.34,5.92c-.71,3.26-1.52,6.56-2.44,9.93s-1.63,4.94-2.09,4.7l-4.52-.69c-.24-.23.11-1.81,1-4.7a92.37,92.37,0,0,0,2.44-9.24,50.33,50.33,0,0,0,1-10.1q0-11.15-7.24-11.15-11.51,0-22.14,12.89a101.23,101.23,0,0,0-17.07,31.54,104.75,104.75,0,0,0-6.44,34q0,11.14,3.83,17.78a11.78,11.78,0,0,0,11.5,6.26Q471,524.24,543.81,450a91.6,91.6,0,0,1,6.61-6.61q2.45,0-20,24.21a512.91,512.91,0,0,1-46.86,44.61q-24.39,20.35-37.62,20.38Q433.61,532.62,427.93,524.26Z"/><path class="cls-1" d="M541.11,597.6q-5.72-9.24-5.74-23.17a75.46,75.46,0,0,1,29.2-58.88l-6.28-25.43a177.92,177.92,0,0,1-5.45-40.43q0-18.81,6.81-29.61t21.42-10.86h2.1a23.5,23.5,0,0,1,18.1,9.39,32.33,32.33,0,0,1,7.24,20.91,33.17,33.17,0,0,1-3.49,15,12.11,12.11,0,0,0-1.49,2.88c-.34.92-.74,1.39-1.21,1.39a8.5,8.5,0,0,1-2.79-1c-.47-.23,0-2.31,1.23-6.28a34.08,34.08,0,0,0,1.81-10.1c0-6.26-1.63-11.15-4.87-14.63a15.23,15.23,0,0,0-11.49-5.23q-15.71,0-15.68,25.34a139.16,139.16,0,0,0,3.82,30.49q3.82,16.9,8,29.8a184.3,184.3,0,0,1,38-27.54q19.49-10.45,47.73-10.44a140.1,140.1,0,0,1,25.44,2.44,228,228,0,0,1,32,7.24q16,4.89,40.08,13.24,26.49,9.4,43.2,14.12a116.42,116.42,0,0,0,31.35,4.7,78.13,78.13,0,0,0,15.68-2.1,71.31,71.31,0,0,0,26.41-12.4,28.29,28.29,0,0,0,12-23.69,40.52,40.52,0,0,0-4.54-17.42,15.34,15.34,0,0,1-1.39-3.84c-.24-1.16-.11-1.81.36-1.81.92,0,2.19,1.81,3.82,5.23a39,39,0,0,1,4.54,17.42,32.32,32.32,0,0,1-12.54,25.78,62.63,62.63,0,0,1-28,13.65,80.86,80.86,0,0,1-15.68,1.39,130.73,130.73,0,0,1-33.27-4.52q-17.26-4.53-45.14-13.94-23.32-7.67-39.19-12.37a236.69,236.69,0,0,0-32.22-7.15A143,143,0,0,0,667.76,473q-27.85,0-46.85,10.45a162.08,162.08,0,0,0-36.4,27.87,153.76,153.76,0,0,1,6.6,42.17q0,24.75-9.75,39t-24.73,14.28Q546.88,606.84,541.11,597.6Zm25.35-14.1q4.17-10.46,4.18-28.57a187.33,187.33,0,0,0-3.13-32.06q-9.06,7-15.52,23.17a82.37,82.37,0,0,0-6.44,30.49q0,17.41,10.1,17.41,6.55,0,10.73-10.44Z"/><path class="cls-1" d="M498.28,981.61a24.76,24.76,0,0,1-4.74,12.12,23,23,0,0,1-10.36,7.61,33.46,33.46,0,0,1-14.48,1.81q-13.26-1-20.24-10.23t-5.78-25l.26-3.31a40.74,40.74,0,0,1,4.74-17.06,26.25,26.25,0,0,1,10.86-10.71,27.69,27.69,0,0,1,15.3-2.92q12.24.93,19.19,8a25.51,25.51,0,0,1,7.11,18.41L484,959.05q.32-6.15-2.43-9a12.65,12.65,0,0,0-8.67-3.37,9.76,9.76,0,0,0-9.21,3.86c-2.1,2.87-3.46,7.64-4.06,14.24l-.36,4.76c-.54,7.25,0,12.39,1.54,15.61s4.56,5,9,5.32a12.5,12.5,0,0,0,8.76-2,11.22,11.22,0,0,0,3.77-8.15Z"/><path class="cls-1" d="M645.17,985.21l-15.79,3.62-6.17-27.5-23.39,5.25,6.17,27.5-15.87,3.62-14.85-66,15.88-3.62L597,954.22,620.4,949l-5.86-26.15,15.79-3.62Z"/><path class="cls-1" d="M762.64,919.6l-19.31,11.15,2.95,12.87-15.07,8.69-12.32-70.82,13.18-7.73,55.36,46-15.14,8.74Zm-22.21-1.66L753,910.7l-18-16.64Z"/><path class="cls-1" d="M844.31,778.22l32.26,30.19a25.33,25.33,0,0,1,7.24,11.21,20.64,20.64,0,0,1-.17,12.42,32.17,32.17,0,0,1-7.54,12.29q-8.46,9-17.94,9.83a22.87,22.87,0,0,1-17.75-6.7l-32.58-30.41L819,805.1l32.89,30.65q8.26,7.37,15.13,0a9.92,9.92,0,0,0,3.19-7.5c-.16-2.51-1.81-5.21-4.82-8l-32.2-30.13Z"/><path class="cls-1" d="M973.24,694.67l-7.1,14.48-48.24,3.06,37.74,18.54-7.24,14.63-60.65-29.64L895,701.13l48.2-3-37.72-18.43,7.11-14.59Z"/><path class="cls-1" d="M987.7,545.1a24.79,24.79,0,0,1,11.72,5.68,23,23,0,0,1,6.75,10.87,33.07,33.07,0,0,1,.72,14.64q-2.05,13.14-11.8,19.35t-25.35,3.79l-3.29-.53a40.71,40.71,0,0,1-16.62-6.1A26,26,0,0,1,940,581.2a27.64,27.64,0,0,1-1.69-15.46q1.9-12.15,9.44-18.52a25.55,25.55,0,0,1,18.93-5.61l-2.51,16q-6.11-.76-9.24,1.7a12.85,12.85,0,0,0-4,8.38,9.75,9.75,0,0,0,3.11,9.5c2.72,2.32,7.24,4.06,13.89,5.16l4.72.75c7.12,1.12,12.33,1,15.66-.29s5.43-4.15,6-8.51a12.52,12.52,0,0,0-1.29-8.89,11.15,11.15,0,0,0-7.8-4.4Z"/><path class="cls-1" d="M969.58,435.81l-30.77-8.42L936.63,410l45.77,15.78,24-3.22,2.21,16.29-24,3.22-40,27.27L942.28,452Z"/><path class="cls-1" d="M168.26,836.58C-18.21,650.12-18.21,346.51,168.26,160s490.07-186.46,676.61,0l-9.62,9.58C654-11.7,359.14-11.7,177.83,169.55S-3.42,645.66,177.83,827Z"/><circle class="cls-1" cx="921.3" cy="273.46" r="31.3"/><circle class="cls-1" cx="279.32" cy="915.42" r="31.3"/></svg>